<svg xmlns="http://www.w3.org/2000/svg" viewBox="0 0 64 64" role="img" aria-label="Daymark">
  <defs>
    <linearGradient id="paper" x1="12" x2="52" y1="6" y2="58" gradientUnits="userSpaceOnUse">
      <stop stop-color="#fff9ed"/>
      <stop offset=".62" stop-color="#f4e4c6"/>
      <stop offset="1" stop-color="#e8c98e"/>
    </linearGradient>
    <linearGradient id="seal" x1="12" x2="52" y1="12" y2="52" gradientUnits="userSpaceOnUse">
      <stop stop-color="#df2025"/>
      <stop offset="1" stop-color="#8f1114"/>
    </linearGradient>
    <filter id="shadow" x="-20%" y="-20%" width="140%" height="140%">
      <feDropShadow dx="0" dy="5" stdDeviation="5" flood-color="#3a2613" flood-opacity=".24"/>
    </filter>
  </defs>
  <rect width="64" height="64" rx="14" fill="#181611"/>
  <circle cx="32" cy="32" r="27" fill="url(#paper)"/>
  <path d="M32 9a23 23 0 1 1-16.26 6.74" fill="none" stroke="#b98935" stroke-width="2.8" stroke-linecap="round"/>
  <path d="M32 7v9M32 48v9M7 32h9M48 32h9" fill="none" stroke="#b98935" stroke-width="2.4" stroke-linecap="round"/>
  <g filter="url(#shadow)">
    <rect x="17" y="17" width="30" height="30" rx="6" fill="url(#seal)"/>
    <rect x="21" y="21" width="22" height="22" rx="3" fill="none" stroke="#fff9ed" stroke-width="2"/>
    <path d="M26 28h12M26 36h12M32 24v16" fill="none" stroke="#fff9ed" stroke-width="3" stroke-linecap="round"/>
  </g>
  <circle cx="48" cy="16" r="4" fill="#12786e" stroke="#fff9ed" stroke-width="2"/>
</svg>
